
Complete name                    : Barbarossa.2009.avi
Format                           : AVI
File size                        : 1.37 GiB
Duration                         : 2h 3mn
Overall bit rate                 : 1 587 Kbps

Video

Format                           : MPEG-4 Visual
Codec ID/Hint                    : XviD
Duration                         : 2h 3mn
Bit rate                         : 1 446 Kbps
Width                            : 700 pixels
Height                           : 436 pixels
Display aspect ratio             : 2.25:1
Stream size                      : 1.25 GiB (91%)
Writing library                  : XviD 1.1.2 (UTC 2006-11-01)

Audio

Format                           : MPEG Audio
Codec ID/Hint                    : MP3
Duration                         : 2h 3mn
Bit rate                         : 128 Kbps
Channel(s)                       : 2 channels
Sampling rate                    : 48.0 KHz
Stream size                      : 113 MiB (8%)


Text #1
Language                         : Norwegian

Text #2
Language                         : Danish

Text #3
Language                         : Finnish

Text #4
Language                         : Swedish